<?xml version="1.0" standalone="no"?>
<!DOCTYPE svg PUBLIC "-//W3C//DTD SVG 20010904//EN"
 "http://www.w3.org/TR/2001/REC-SVG-20010904/DTD/svg10.dtd">
<svg version="1.0" xmlns="http://www.w3.org/2000/svg"
 width="512.000000pt" height="512.000000pt" viewBox="0 0 512.000000 512.000000"
 preserveAspectRatio="xMidYMid meet">

<g transform="translate(0.000000,512.000000) scale(0.100000,-0.100000)"
fill="#ccc" stroke="none">
<path d="M1124 4480 c-264 -41 -474 -265 -486 -520 -1 -30 -1 -313 0 -627 2
-558 3 -574 22 -593 20 -20 33 -20 860 -20 827 0 840 0 860 20 20 20 20 33 20
860 0 827 0 840 -20 860 -20 20 -33 20 -577 20 -307 0 -574 2 -593 4 -19 3
-58 1 -86 -4z m882 -826 c53 -39 69 -71 69 -134 0 -63 -16 -95 -69 -134 -26
-20 -42 -21 -384 -24 -234 -2 -370 1 -394 8 -101 29 -140 168 -71 251 50 58
53 59 455 56 353 -2 368 -3 394 -23z"/>
<path d="M3327 4480 c-558 -5 -579 -6 -593 -24 -12 -17 -14 -150 -14 -858 0
-825 0 -838 20 -858 20 -20 33 -20 860 -20 827 0 840 0 860 20 19 19 20 35 22
593 1 314 1 597 -1 627 -12 269 -246 504 -521 522 -30 2 -315 1 -633 -2z m281
-507 c58 -43 67 -66 70 -183 l4 -108 108 -4 c91 -2 113 -6 136 -24 53 -39 69
-71 69 -134 0 -63 -16 -95 -69 -134 -23 -18 -45 -22 -136 -24 l-108 -4 -4
-108 c-3 -117 -12 -140 -72 -184 -39 -29 -133 -29 -172 0 -60 44 -69 67 -72
184 l-4 108 -108 4 c-117 3 -140 12 -184 72 -29 39 -29 133 0 172 44 60 67 69
185 72 l109 4 0 93 c0 128 22 178 95 211 40 19 119 12 153 -13z"/>
<path d="M660 2380 c-19 -19 -20 -35 -22 -592 -1 -315 -1 -598 0 -628 13 -269
253 -509 522 -521 30 -2 313 -2 628 -1 557 2 573 3 592 22 20 20 20 33 20 860
0 827 0 840 -20 860 -20 20 -33 20 -860 20 -827 0 -840 0 -860 -20z m737 -371
c15 -5 67 -49 116 -97 l87 -87 88 87 c48 48 100 92 115 97 103 39 217 -35 217
-141 0 -61 -17 -89 -108 -180 l-86 -88 91 -92 c100 -103 119 -142 103 -212
-11 -50 -63 -103 -114 -117 -68 -19 -108 1 -213 104 l-93 91 -92 -91 c-67 -65
-104 -94 -133 -103 -113 -34 -225 79 -194 195 8 29 34 64 102 133 l91 92 -86
88 c-48 48 -92 100 -97 115 -49 131 75 255 206 206z"/>
<path d="M2740 2380 c-20 -20 -20 -33 -20 -860 0 -827 0 -840 20 -860 19 -19
35 -20 593 -22 314 -1 597 -1 627 1 269 12 509 252 521 521 2 30 2 313 1 628
-2 557 -3 573 -22 592 -20 20 -33 20 -860 20 -827 0 -840 0 -860 -20z m1183
-379 c51 -31 81 -91 74 -149 -5 -50 -29 -87 -77 -119 -33 -23 -36 -23 -400
-23 -364 0 -367 0 -400 23 -75 50 -99 130 -62 203 47 92 58 94 477 91 348 -2
350 -2 388 -26z m-3 -533 c48 -33 72 -70 77 -120 7 -58 -23 -118 -74 -149
l-38 -24 -365 0 -365 0 -38 24 c-51 31 -81 91 -74 149 5 50 29 87 77 120 33
22 36 22 400 22 364 0 367 0 400 -22z"/>
</g>
</svg>
